<svg xmlns="http://www.w3.org/2000/svg" xmlns:xlink="http://www.w3.org/1999/xlink" version="1.1" id="Layer_1" x="0px" y="0px" width="100%" viewBox="0 0 1024 1024" enable-background="new 0 0 1024 1024" xml:space="preserve">





<path fill="#12A5B5" opacity="1.000000" stroke="none" d=" M866.333313,1025.000000   C866.318115,1024.503662 866.636292,1024.007202 866.954468,1023.510864   C867.272278,1023.816040 867.590149,1024.121216 867.953979,1024.713135   C867.555542,1025.000000 867.111084,1025.000000 866.333313,1025.000000  z"/>
<path fill="#041822" opacity="1.000000" stroke="none" d=" M945.193787,1006.403198   C922.434753,1011.515015 899.602478,1009.662903 876.081299,1010.290283   C874.507935,1010.366333 873.757996,1010.430298 873.008118,1010.494263   C871.610229,1010.423828 870.212402,1010.353394 868.404053,1010.386169   C848.681091,1010.464722 829.368591,1010.441833 810.056152,1010.414612   C795.577820,1010.394226 781.099487,1010.354126 766.621155,1010.346802   C646.546387,1010.285889 526.471619,1010.234192 406.396820,1010.166687   C397.242340,1010.161560 388.087952,1010.057251 378.470093,1010.073425   C376.517059,1010.036011 375.027374,1009.826416 373.537720,1009.826477   C293.334290,1009.827820 213.130890,1009.846863 132.051788,1009.859253   C129.784210,1009.907349 128.392303,1009.960205 127.000404,1010.013000   C123.722191,1009.922241 120.443977,1009.831482 116.735504,1009.790894   C110.868393,1008.480469 105.355652,1007.366089 100.007668,1005.717224   C75.361160,998.118713 56.847534,983.322388 46.503983,959.258179   C41.998116,948.775269 39.561184,937.863647 39.611992,926.327209   C39.766052,891.346802 39.698364,856.365234 39.652340,821.384216   C39.564423,754.560913 39.381912,687.737610 39.340157,620.914246   C39.321213,590.592590 39.655296,560.270691 39.636597,529.949036   C39.586040,447.960327 39.386631,365.971680 39.341003,283.982971   C39.321808,249.497330 39.504814,215.011383 39.666183,180.525909   C39.754959,161.554062 38.893883,142.494110 40.421925,123.632736   C42.577877,97.020798 56.823013,77.217659 79.249725,63.082909   C93.862831,53.872795 109.751457,49.674156 127.008568,49.745399   C160.166931,49.882286 193.326660,49.729294 226.485703,49.648655   C258.621826,49.570499 290.757782,49.353294 322.893860,49.344990   C349.214294,49.338188 375.534882,49.661518 401.855255,49.642769   C498.343140,49.574028 594.830933,49.386913 691.318787,49.325203   C722.129944,49.305496 752.941223,49.631405 783.752441,49.628532   C819.912048,49.625164 856.072205,49.272541 892.230896,49.405655   C907.187500,49.460716 922.532532,48.425785 937.013794,51.322102   C966.639099,57.247322 988.383850,74.429611 1000.231201,102.998337   C1004.317444,112.851715 1006.119507,123.089035 1006.156494,133.658539   C1006.271912,166.655579 1006.277527,199.652985 1006.341248,232.650223   C1006.452576,290.292816 1006.609070,347.935364 1006.682068,405.578003   C1006.733337,446.051605 1006.700928,486.525391 1006.665161,526.999023   C1006.567139,637.810852 1006.444214,748.622742 1006.339478,859.434570   C1006.318542,881.591553 1006.420288,903.748962 1006.311218,925.905396   C1006.186218,951.297180 996.269226,972.319092 977.297852,989.030334   C968.057617,997.169800 957.029358,1002.230286 945.193787,1006.403198  M500.008575,160.913589   C499.982941,153.932373 499.944733,146.951157 499.935303,139.969925   C499.926514,133.450104 499.379425,133.051193 492.691071,134.814850   C492.691071,143.885651 492.691071,152.956451 492.626526,162.944519   C493.612976,164.096344 494.535889,166.170456 495.596619,166.243515   C500.736877,166.597565 505.918091,166.519135 511.074646,166.324707   C511.996307,166.289932 512.870178,164.987213 513.766113,164.269958   C512.890808,163.535187 512.064697,162.246277 511.131592,162.163513   C507.492889,161.840820 503.820282,161.900208 500.008575,160.913589  M498.937286,939.231262   C509.368744,939.231262 519.800171,939.231262 530.497375,939.231262   C530.497375,931.951721 530.497375,925.071960 530.497375,918.009521   C519.498108,918.009521 508.748749,918.009521 497.467194,917.710388   C497.118347,917.509827 496.769501,917.309265 496.510925,916.287537   C496.510925,911.873779 496.510925,907.459961 496.510925,902.569336   C507.462524,902.569336 517.711548,902.569336 528.070190,902.569336   C528.070190,896.120239 528.070190,890.163635 528.070190,883.641602   C517.502258,883.641602 507.110352,883.641602 496.495239,883.641602   C496.495239,877.826294 496.495239,872.577271 496.495239,866.687622   C507.775665,866.687622 518.855896,866.687622 530.206055,866.687622   C530.206055,859.125732 530.206055,852.201050 530.206055,845.130188   C509.570679,845.130188 489.064880,845.130188 468.459961,845.130188   C468.459961,876.592712 468.459961,907.663513 468.459961,939.027893   C477.794739,939.027893 486.896973,939.027893 496.354462,939.282837   C496.905914,939.222473 497.457367,939.162109 498.937286,939.231262  M575.348938,623.295898   C575.906677,623.224182 576.464355,623.152527 577.811035,623.267395   C579.598999,622.634827 581.780029,622.451172 583.105652,621.290527   C588.348022,616.700684 593.370850,611.854797 598.386536,607.012268   C610.355835,595.456177 622.394775,583.967163 634.114136,572.161621   C636.485535,569.772827 639.005249,566.120605 639.032349,563.029541   C639.368469,524.704529 639.281006,486.375549 639.178589,448.047913   C639.173767,446.241425 638.491333,443.988708 637.301453,442.709229   C631.439331,436.405853 625.332031,430.328217 619.250244,424.231781   C607.997009,412.951416 596.752380,401.661285 585.362915,390.519470   C583.828979,389.018921 581.496460,387.492096 579.500671,387.447266   C569.017456,387.211517 558.523743,387.448608 547.117126,387.291809   C527.393616,387.378967 507.670105,387.466156 487.040558,387.341583   C481.057526,387.309326 475.070648,387.148804 469.093964,387.328278   C467.446411,387.377716 465.372711,387.988953 464.266357,389.106476   C445.963165,407.595062 427.762878,426.185883 409.629608,444.841400   C408.608215,445.892212 407.844238,447.698608 407.840515,449.155640   C407.799713,465.105774 407.934143,481.056335 407.778992,497.670959   C407.889954,499.766663 408.000946,501.862396 408.038696,504.898193   C407.980560,522.996277 407.813995,541.095276 407.979919,559.191345   C408.005127,561.941895 408.814362,565.364441 410.563416,567.298096   C416.880554,574.281982 423.708923,580.808411 430.428101,587.422485   C439.975464,596.820374 450.030121,605.748169 459.038116,615.633179   C465.291870,622.495667 472.133301,625.162659 481.906769,623.647461   C492.693634,623.617004 503.480713,623.623535 514.267273,623.548279   C534.507996,623.407104 554.748474,623.218567 575.348938,623.295898  M295.566772,447.073456   C295.566772,435.455414 295.566772,423.837402 295.566772,411.720154   C284.228638,411.720154 273.174103,411.720154 261.529205,411.720154   C261.529205,413.407532 261.531006,415.036316 261.528900,416.665100   C261.498260,440.457733 261.423279,464.250458 261.454956,488.042999   C261.470459,499.676666 261.684265,511.310028 261.506500,523.843018   C261.506500,549.579102 261.506500,575.315186 261.506500,601.141846   C273.136932,601.141846 284.156891,601.141846 295.477753,601.141846   C295.477753,599.361755 295.475311,598.046753 295.478088,596.731812   C295.562347,556.948059 295.679077,517.164246 295.709167,477.380463   C295.716583,467.576111 295.442169,457.771545 295.566772,447.073456  M786.706848,721.052307   C786.706848,681.659607 786.706848,642.266846 786.706848,602.675293   C774.954163,602.675293 763.631042,602.675293 752.914612,602.675293   C751.944092,605.557678 751.820374,608.450439 750.313843,609.990356   C740.458862,620.063538 730.279663,629.818665 720.255859,639.727722   C711.793579,648.093201 703.398132,656.526184 694.358887,665.202332   C670.838684,688.709900 647.318542,712.217468 623.798401,735.724976   C624.011169,736.269836 624.223999,736.814697 624.436768,737.359558   C637.704468,737.359558 651.011414,736.744141 664.225403,737.586243   C672.383362,738.106140 677.151367,734.119263 681.854187,728.860596   C682.736267,727.874207 683.621887,726.888855 684.547180,725.943481   C693.018982,717.287964 701.500061,708.641479 710.617126,699.768372   C724.138428,686.303101 737.659668,672.837891 751.180969,659.372681   C751.617920,659.642639 752.054871,659.912598 752.491821,660.182556   C752.491821,680.110657 752.491821,700.038757 752.273743,720.885193   C752.273743,727.497498 752.273743,734.109802 752.273743,741.419617   C708.259277,741.419617 664.879517,741.419617 621.504395,741.419617   C621.504395,753.717407 621.504395,765.304688 621.504395,777.221497   C676.711487,777.221497 731.622009,777.221497 786.523560,777.221497   C786.523560,758.569946 786.523560,740.268677 786.706848,721.052307  M275.085785,234.159164   C270.474152,234.159164 265.862488,234.159164 260.758698,234.159164   C260.758698,236.668167 260.747223,238.627319 260.760437,240.586319   C260.914307,263.400421 261.076843,286.214508 261.226746,309.028625   C261.333923,325.343658 261.425415,341.658844 261.299316,358.890167   C261.299316,374.603607 261.299316,390.317078 261.299316,406.501740   C271.298645,406.501740 280.561462,406.334503 289.813202,406.581268   C293.695496,406.684845 296.366638,405.094727 298.894409,402.508514   C304.993256,396.268738 311.226929,390.160675 317.323364,383.918579   C322.731232,378.381439 328.027435,372.735199 334.024780,367.014679   C343.245941,357.788818 352.440155,348.535858 361.696716,339.345642   C369.071014,332.024231 376.584503,324.842285 383.921173,317.483734   C392.078278,309.302277 400.136383,301.021271 408.178040,292.725861   C413.944763,286.777161 419.613586,280.733521 425.326080,274.732208   C425.078674,274.307648 424.831268,273.883087 424.583862,273.458527   C409.153412,273.458527 393.722321,273.399689 378.293457,273.556854   C376.876038,273.571259 375.183014,274.676544 374.105591,275.760132   C352.347961,297.642151 330.704315,319.637604 308.922974,341.495880   C304.888245,345.544861 300.356018,349.098083 295.981659,352.398285   C295.981659,352.398285 295.707825,351.995331 295.814301,351.064728   C295.712311,342.710999 295.610321,334.357239 295.708191,325.085510   C295.708191,307.011627 295.708191,288.937744 295.708191,270.178253   C342.313416,270.178253 388.202179,270.178253 434.205444,270.178253   C434.205444,257.742706 434.205444,246.003983 434.205444,233.819077   C431.188782,233.819077 428.546295,233.819565 425.903839,233.819000   C398.580444,233.813263 371.256805,233.734726 343.933716,233.824036   C321.289246,233.898056 298.645355,234.169876 275.085785,234.159164  M261.284790,725.891724   C261.284790,742.986023 261.284790,760.080322 261.284790,777.282349   C318.395233,777.282349 374.931213,777.282349 432.146820,777.282349   C432.146820,766.543335 431.970673,756.248840 432.240509,745.966064   C432.337555,742.266357 430.972137,741.442627 427.643494,741.418823   C408.178802,741.279907 388.715820,740.874695 369.251129,740.770569   C346.592834,740.649353 323.933319,740.745300 301.274353,740.747070   C299.641876,740.747192 298.009399,740.747131 296.187653,740.747131   C295.901154,738.180054 295.666016,736.073242 295.652924,733.060547   C295.652924,708.508728 295.652924,683.956848 295.652924,658.547913   C297.540466,659.807434 299.294159,660.634216 300.605835,661.914062   C305.467194,666.657593 310.160645,671.572571 314.957062,676.383423   C334.336090,695.820618 353.694366,715.278931 373.190613,734.598022   C374.642365,736.036438 377.103882,737.148010 379.128387,737.202271   C390.944733,737.518677 402.770691,737.479065 414.593506,737.548523   C417.993317,737.568481 421.393372,737.551575 424.887878,737.551575   C424.723816,736.755066 424.766663,736.344727 424.582550,736.156921   C412.753357,724.088318 400.978455,711.965149 389.040131,700.005127   C376.018158,686.959534 362.836853,674.072937 349.736572,661.105347   C333.817932,645.347961 317.925140,629.564514 301.985535,613.828369   C299.421478,611.297119 296.817780,607.077698 293.982208,606.857361   C283.288971,606.026062 272.492432,606.523560 261.241241,606.523560   C261.241241,608.996399 261.241272,610.793396 261.241241,612.590332   C261.241119,628.077332 261.209106,643.564392 261.248596,659.051331   C261.304596,681.025452 261.413208,702.999390 261.284790,725.891724  M626.402466,273.693481   C625.195007,273.814331 623.987610,273.935211 621.351501,274.199097   C624.245972,276.397980 626.024902,277.749390 628.102783,279.636230   C629.005127,280.448395 629.907471,281.260529 630.981323,282.733887   C631.939514,283.623169 632.897705,284.512451 634.132446,285.988434   C642.970337,294.918091 651.808289,303.847717 660.934814,313.327515   C662.576416,314.959167 664.220215,316.588684 665.859253,318.222870   C679.462646,331.785767 693.051025,345.363708 706.672363,358.908539   C717.806458,369.980103 729.212036,380.790527 740.049683,392.144073   C746.694580,399.105286 753.266235,404.563354 763.893738,402.942688   C770.071777,402.000580 776.511658,402.797485 782.833435,402.757477   C784.083923,402.749573 785.332825,402.493286 786.551575,402.355042   C786.551575,399.270874 786.551575,396.626465 786.746033,393.066498   C786.746033,340.019592 786.746033,286.972687 786.746033,233.957123   C731.006165,233.957123 675.979187,233.957123 620.640991,233.957123   C620.640991,245.210739 620.692505,256.000244 620.609924,266.788696   C620.584778,270.073608 622.541748,269.941162 624.900879,269.949280   C664.362793,270.084595 703.824463,270.278137 743.286194,270.455444   C746.228394,270.468658 749.170715,270.457184 752.539490,270.457184   C752.539490,272.964539 752.528687,274.769409 752.541077,276.574188   C752.688416,298.049530 752.839294,319.524872 752.782837,341.856812   C752.844910,343.904419 752.906982,345.951996 752.764954,348.722351   C752.230713,350.127258 751.696411,351.532166 750.951660,352.323181   C749.633484,351.218567 748.315247,350.113983 746.750061,348.430786   C745.619324,347.566895 744.488586,346.703033 743.076660,345.232697   C742.103455,344.328217 741.130249,343.423737 739.993591,341.895050   C733.736633,335.900909 727.479614,329.906769 720.994019,323.277924   C719.332458,321.510315 717.670837,319.742706 715.751526,317.359924   C701.994812,303.633972 688.263977,289.881836 674.435120,276.228912   C673.256226,275.065033 671.430298,273.872437 669.895325,273.859741   C655.602783,273.741608 641.308167,273.879059 626.402466,273.693481  M535.499939,777.578308   C562.400513,777.578308 589.301086,777.578308 616.372314,777.578308   C616.372314,764.963623 616.372314,753.251099 616.372314,741.386353   C614.661011,741.306885 613.347046,741.193726 612.033020,741.192566   C563.572693,741.150024 515.112427,741.109741 466.652100,741.091064   C457.660797,741.087646 448.666626,741.075073 439.681091,741.327698   C438.272919,741.367371 435.716370,742.776367 435.696503,743.600525   C435.428955,754.706543 435.517059,765.821228 435.517059,777.577393   C468.989624,777.577393 501.744751,777.577393 535.499939,777.578308  M601.490479,270.527832   C606.412109,270.527832 611.333801,270.527832 616.001465,270.527832   C616.001465,257.778748 616.001465,245.883469 616.001465,234.156998   C556.290100,234.156998 497.096344,234.156998 438.194946,234.156998   C438.194946,246.318268 438.194946,258.057709 438.194946,270.529602   C492.635162,270.529602 546.564270,270.529602 601.490479,270.527832  M752.750488,512.499939   C752.750488,540.578735 752.750488,568.657532 752.750488,596.830566   C764.337097,596.830566 775.362793,596.830566 786.571411,596.830566   C786.571411,533.604004 786.571411,470.765381 786.571411,407.780884   C775.177063,407.780884 764.134338,407.780884 753.227417,407.780884   C752.984741,408.486359 752.783875,408.797882 752.783691,409.109497   C752.763306,443.239624 752.757935,477.369781 752.750488,512.499939  M625.097595,863.357361   C622.486877,860.358521 620.219116,856.951172 617.210999,854.425659   C593.807983,834.777527 557.988953,838.917664 540.505737,864.624023   C524.221069,888.568115 531.085022,912.882874 551.395325,930.358337   C573.031982,948.975098 612.895020,944.090271 628.328247,915.960938   C637.614624,899.035156 636.854614,878.215454 625.097595,863.357361  M392.865112,939.018494   C394.665070,939.268677 396.464478,939.731995 398.265045,939.736267   C417.410431,939.781799 436.556030,939.760864 455.701538,939.730225   C456.799072,939.728516 457.896210,939.483643 459.244507,939.321777   C459.244507,933.560608 459.057037,928.069519 459.308990,922.598633   C459.483307,918.813477 458.099304,917.824585 454.395538,917.879761   C442.934174,918.050720 431.466705,917.811340 420.001587,917.734802   C418.386871,917.723999 416.772003,917.733276 414.941101,917.733276   C414.941101,893.094727 414.941101,869.049866 414.941101,845.048950   C406.052032,845.048950 397.487762,845.048950 389.023102,845.048950   C388.827759,845.680908 388.646637,845.994141 388.645966,846.307739   C388.586365,875.108765 388.468353,903.910156 388.650391,932.709778   C388.663025,934.708496 390.913696,936.693054 392.865112,939.018494  M538.147461,165.697983   C539.871277,164.748596 541.838623,164.073624 543.274231,162.799515   C548.019287,158.588165 549.368530,153.058167 548.224976,147.030899   C547.124023,141.228592 543.714844,137.019974 537.856018,135.523788   C532.501648,134.156448 525.902161,137.155212 522.726318,141.886383   C518.727173,147.844269 518.607117,153.918945 522.377014,159.569580   C525.776733,164.665359 531.212952,166.901550 538.147461,165.697983  z"/>
<path fill="#149BAC" opacity="1.000000" stroke="none" d=" M127.082016,1010.362976   C128.392303,1009.960205 129.784210,1009.907349 131.587891,1009.933350   C130.769119,1012.877991 129.098618,1012.708069 127.082016,1010.362976  z"/>
<path fill="#12A5B5" opacity="1.000000" stroke="none" d=" M873.028809,1010.810913   C873.757996,1010.430298 874.507935,1010.366333 875.624939,1010.399109   C875.598022,1011.254211 875.203979,1012.012512 874.809937,1012.770874   C874.223145,1012.223083 873.636292,1011.675293 873.028809,1010.810913  z"/>
<path fill="#01F7E6" opacity="1.000000" stroke="none" d=" M751.162170,352.937073   C751.696411,351.532166 752.230713,350.127258 753.236511,348.270142   C755.539185,345.327026 756.234680,342.955841 752.989197,341.000214   C752.839294,319.524872 752.688416,298.049530 752.541077,276.574188   C752.528687,274.769409 752.539490,272.964539 752.539490,270.457184   C749.170715,270.457184 746.228394,270.468658 743.286194,270.455444   C703.824463,270.278137 664.362793,270.084595 624.900879,269.949280   C622.541748,269.941162 620.584778,270.073608 620.609924,266.788696   C620.692505,256.000244 620.640991,245.210739 620.640991,233.957123   C675.979187,233.957123 731.006165,233.957123 786.746033,233.957123   C786.746033,286.972687 786.746033,340.019592 786.294678,393.524658   C780.573181,392.683075 774.483765,384.486267 775.161255,379.880798   C775.462219,377.835358 775.974121,375.216370 775.011658,373.784393   C774.265930,372.674957 771.377625,373.005676 768.866028,372.604187   C769.788574,370.820892 770.775208,368.913788 771.793457,366.945557   C765.051025,364.987976 760.837158,357.763123 753.635254,359.208801   C751.307190,362.335114 749.406677,365.230774 747.159119,367.825897   C743.674011,371.850006 740.120117,368.135529 736.546387,366.903259   C735.342529,373.967468 744.581726,370.955078 744.875244,376.684723   C740.734070,377.209351 737.538086,376.398102 735.081604,373.510345   C731.985229,369.870453 728.863464,366.235626 726.031799,362.392914   C724.149963,359.839203 722.460999,358.090363 718.769775,358.416504   C717.211060,358.554230 714.935730,356.327271 713.818604,354.627930   C710.643921,349.798859 708.600403,344.053986 704.805115,339.848816   C700.093018,334.627899 694.099854,330.554047 688.603821,326.053436   C685.562500,323.563019 681.677246,321.739685 679.466492,318.680481   C675.813599,313.625793 670.891174,312.214508 665.363159,311.708008   C663.836243,311.568115 662.220947,312.394409 660.646179,312.777374   C651.808289,303.847717 642.970337,294.918091 634.021118,285.290344   C632.876526,283.752411 631.843140,282.912567 630.809814,282.072693   C629.907471,281.260529 629.005127,280.448395 628.219666,279.164612   C627.895752,277.109467 627.454895,275.525970 627.014099,273.942444   C641.308167,273.879059 655.602783,273.741608 669.895325,273.859741   C671.430298,273.872437 673.256226,275.065033 674.435120,276.228912   C688.263977,289.881836 701.994812,303.633972 715.820435,318.064026   C715.796875,320.947113 715.704346,323.126099 715.611816,325.305054   C717.482056,324.840912 719.352356,324.376770 721.222656,323.912659   C727.479614,329.906769 733.736633,335.900909 740.036987,342.607361   C739.813416,345.927917 740.396362,347.430664 743.357849,345.839172   C744.488586,346.703033 745.619324,347.566895 746.875122,349.119690   C746.755005,353.023254 748.841003,353.136627 751.162170,352.937073  z"/>
<path fill="#01D9CD" opacity="1.000000" stroke="none" d=" M261.499329,724.973450   C261.413208,702.999390 261.304596,681.025452 261.248596,659.051331   C261.209106,643.564392 261.241119,628.077332 261.241241,612.590332   C261.241272,610.793396 261.241241,608.996399 261.241241,606.523560   C272.492432,606.523560 283.288971,606.026062 293.982208,606.857361   C296.817780,607.077698 299.421478,611.297119 301.985535,613.828369   C317.925140,629.564514 333.817932,645.347961 349.736572,661.105347   C362.836853,674.072937 376.018158,686.959534 389.040131,700.005127   C400.978455,711.965149 412.753357,724.088318 424.582550,736.156921   C424.766663,736.344727 424.723816,736.755066 424.887878,737.551575   C421.393372,737.551575 417.993317,737.568481 414.593506,737.548523   C402.770691,737.479065 390.944733,737.518677 379.128387,737.202271   C377.103882,737.148010 374.642365,736.036438 373.190613,734.598022   C353.694366,715.278931 334.336090,695.820618 314.957062,676.383423   C310.160645,671.572571 305.467194,666.657593 300.605835,661.914062   C299.294159,660.634216 297.540466,659.807434 295.652924,658.547913   C295.652924,683.956848 295.652924,708.508728 295.179321,733.518127   C290.987823,733.058716 287.269897,732.141724 283.442108,731.197632   C282.709045,737.833557 288.568726,734.769653 290.647461,736.931091   C284.761719,744.760376 277.975037,737.708008 270.813843,738.624939   C271.503357,735.105103 272.133118,731.890320 272.992157,727.505249   C270.906067,729.040894 269.930542,729.759033 268.955017,730.477173   C269.113800,729.998718 269.272583,729.520325 269.431366,729.041870   C266.787354,727.685730 264.143341,726.329590 261.499329,724.973450  M268.762756,718.442627   C268.862061,719.516357 268.961334,720.590149 269.060608,721.663818   C269.855621,721.321228 270.650635,720.978638 271.445648,720.636108   C270.771057,719.826416 270.096436,719.016663 268.762756,718.442627  z"/>
<path fill="#01EDDC" opacity="1.000000" stroke="none" d=" M261.523895,357.973938   C261.425415,341.658844 261.333923,325.343658 261.226746,309.028625   C261.076843,286.214508 260.914307,263.400421 260.760437,240.586319   C260.747223,238.627319 260.758698,236.668167 260.758698,234.159164   C265.862488,234.159164 270.474152,234.159164 275.572754,234.623642   C277.879578,236.112259 279.699493,237.136414 282.108673,238.492188   C280.488129,240.653336 278.798920,242.906006 277.067169,245.215424   C279.026306,248.532120 280.872284,251.619003 282.663696,254.737244   C282.893463,255.137192 283.072235,255.832092 282.881989,256.167877   C280.016022,261.225891 281.127960,268.369843 275.054657,271.753998   C273.467346,270.840790 272.120392,270.065826 270.402863,269.077698   C269.815491,272.003967 269.336456,274.390472 268.857422,276.776947   C269.378052,276.664520 269.898682,276.552124 270.419342,276.439697   C271.285919,278.129181 272.825226,279.789673 272.899567,281.513306   C273.181610,288.054413 276.013153,293.405975 281.192444,296.757416   C283.901184,298.510223 285.190430,299.315796 284.203674,302.599274   C283.664734,304.392639 283.809845,306.688110 284.440521,308.477295   C285.946289,312.749084 287.599213,317.040497 289.840851,320.952576   C291.034058,323.035004 293.575470,324.344910 295.508362,326.003510   C295.610321,334.357239 295.712311,342.710999 295.504639,351.586853   C295.013062,352.548462 294.831146,352.987976 294.649231,353.427490   C295.117310,353.245056 295.585358,353.062622 296.053406,352.880157   C300.356018,349.098083 304.888245,345.544861 308.922974,341.495880   C330.704315,319.637604 352.347961,297.642151 374.105591,275.760132   C375.183014,274.676544 376.876038,273.571259 378.293457,273.556854   C393.722321,273.399689 409.153412,273.458527 424.583862,273.458527   C424.831268,273.883087 425.078674,274.307648 425.326080,274.732208   C419.613586,280.733521 413.944763,286.777161 408.178040,292.725861   C400.136383,301.021271 392.078278,309.302277 383.921173,317.483734   C376.584503,324.842285 369.071014,332.024231 361.696716,339.345642   C352.440155,348.535858 343.245941,357.788818 333.322052,367.068085   C330.715424,368.000793 328.811554,368.880096 326.907654,369.759399   C327.056946,369.211273 327.206238,368.663147 327.355530,368.115051   C324.963715,367.080536 322.606506,365.390472 320.166901,365.261780   C318.744293,365.186676 317.189789,367.610199 315.479004,369.096924   C311.181946,366.805023 308.183899,362.080444 310.688965,359.002380   C315.854736,352.655090 310.498383,354.355469 307.467133,353.979584   C306.191284,353.821381 304.920990,353.618347 303.754700,353.450958   C301.674774,356.938446 300.062317,360.365723 295.025726,359.400055   C293.932220,359.190369 291.486176,361.328979 291.168884,362.727570   C290.443420,365.925690 288.923462,365.907318 286.506653,365.030945   C285.470215,364.655090 284.331726,364.560699 283.180267,364.326355   C282.724304,365.122498 282.509247,365.795166 282.061096,366.224518   C280.734680,367.495209 279.316254,368.669861 277.933807,369.882080   C277.225098,368.585968 276.397430,367.339630 275.830109,365.984344   C274.183014,362.049438 265.565399,357.170776 261.523895,357.973938  M281.550385,357.706085   C281.910706,358.063904 282.270996,358.421722 282.631317,358.779541   C282.903046,358.482788 283.174774,358.186005 283.446503,357.889282   C282.949646,357.695679 282.452789,357.502075 281.550385,357.706085  M270.821198,355.450531   C270.816498,355.805847 270.808533,356.161285 270.825684,356.515564   C270.826111,356.524567 271.230072,356.530518 271.230835,356.520813   C271.259003,356.167267 271.261566,355.811707 270.821198,355.450531  z"/>
<path fill="#01E5D7" opacity="1.000000" stroke="none" d=" M694.973145,664.929321   C703.398132,656.526184 711.793579,648.093201 720.255859,639.727722   C730.279663,629.818665 740.458862,620.063538 750.313843,609.990356   C751.820374,608.450439 751.944092,605.557678 752.914612,602.675293   C763.631042,602.675293 774.954163,602.675293 786.706848,602.675293   C786.706848,642.266846 786.706848,681.659607 786.254150,721.495850   C780.114319,720.166626 774.796875,718.024536 768.361206,720.556274   C764.447815,722.095886 759.294434,724.533020 754.913269,720.225586   C754.459717,719.779724 753.315552,720.036255 752.491821,719.966858   C752.491821,700.038757 752.491821,680.110657 752.491821,660.182556   C752.054871,659.912598 751.617920,659.642639 751.180969,659.372681   C737.659668,672.837891 724.138428,686.303101 709.914917,699.869629   C703.625854,698.950623 696.967163,702.474365 692.650452,696.022278   C691.863892,694.846558 690.187134,693.892151 690.058533,692.711731   C689.296631,685.715759 691.041321,679.121399 693.609253,672.630859   C694.549011,670.255615 694.546021,667.507385 694.973145,664.929321  M693.157471,691.371765   C693.952942,691.156616 694.748413,690.941467 695.543945,690.726318   C695.324829,690.219727 695.105713,689.713196 694.886658,689.206604   C694.344360,689.723633 693.802124,690.240601 693.157471,691.371765  M751.715393,658.597839   C751.993713,658.328735 752.275574,658.062805 752.535522,657.776978   C752.544495,657.767151 752.333191,657.557068 752.224487,657.440308   C751.946350,657.708862 751.668152,657.977417 751.715393,658.597839  z"/>
<path fill="#01DBCF" opacity="1.000000" stroke="none" d=" M752.382812,720.426025   C753.315552,720.036255 754.459717,719.779724 754.913269,720.225586   C759.294434,724.533020 764.447815,722.095886 768.361206,720.556274   C774.796875,718.024536 780.114319,720.166626 786.162476,721.953369   C786.523560,740.268677 786.523560,758.569946 786.523560,777.221497   C731.622009,777.221497 676.711487,777.221497 621.504395,777.221497   C621.504395,765.304688 621.504395,753.717407 621.504395,741.419617   C664.879517,741.419617 708.259277,741.419617 752.273743,741.419617   C752.273743,734.109802 752.273743,727.497498 752.382812,720.426025  z"/>
<path fill="#01D8CA" opacity="1.000000" stroke="none" d=" M534.999878,777.577881   C501.744751,777.577393 468.989624,777.577393 435.517059,777.577393   C435.517059,765.821228 435.428955,754.706543 435.696503,743.600525   C435.716370,742.776367 438.272919,741.367371 439.681091,741.327698   C448.666626,741.075073 457.660797,741.087646 466.652100,741.091064   C515.112427,741.109741 563.572693,741.150024 612.033020,741.192566   C613.347046,741.193726 614.661011,741.306885 616.372314,741.386353   C616.372314,753.251099 616.372314,764.963623 616.372314,777.578308   C589.301086,777.578308 562.400513,777.578308 534.999878,777.577881  z"/>
<path fill="#01D3C7" opacity="1.000000" stroke="none" d=" M261.392059,725.432617   C264.143341,726.329590 266.787354,727.685730 269.431366,729.041870   C269.272583,729.520325 269.113800,729.998718 268.955017,730.477173   C269.930542,729.759033 270.906067,729.040894 272.992157,727.505249   C272.133118,731.890320 271.503357,735.105103 270.813843,738.624939   C277.975037,737.708008 284.761719,744.760376 290.647461,736.931091   C288.568726,734.769653 282.709045,737.833557 283.442108,731.197632   C287.269897,732.141724 290.987823,733.058716 295.068298,733.971069   C295.666016,736.073242 295.901154,738.180054 296.187653,740.747131   C298.009399,740.747131 299.641876,740.747192 301.274353,740.747070   C323.933319,740.745300 346.592834,740.649353 369.251129,740.770569   C388.715820,740.874695 408.178802,741.279907 427.643494,741.418823   C430.972137,741.442627 432.337555,742.266357 432.240509,745.966064   C431.970673,756.248840 432.146820,766.543335 432.146820,777.282349   C374.931213,777.282349 318.395233,777.282349 261.284790,777.282349   C261.284790,760.080322 261.284790,742.986023 261.392059,725.432617  z"/>
<path fill="#01F0E0" opacity="1.000000" stroke="none" d=" M295.608276,325.544495   C293.575470,324.344910 291.034058,323.035004 289.840851,320.952576   C287.599213,317.040497 285.946289,312.749084 284.440521,308.477295   C283.809845,306.688110 283.664734,304.392639 284.203674,302.599274   C285.190430,299.315796 283.901184,298.510223 281.192444,296.757416   C276.013153,293.405975 273.181610,288.054413 272.899567,281.513306   C272.825226,279.789673 271.285919,278.129181 270.419342,276.439697   C269.898682,276.552124 269.378052,276.664520 268.857422,276.776947   C269.336456,274.390472 269.815491,272.003967 270.402863,269.077698   C272.120392,270.065826 273.467346,270.840790 275.054657,271.753998   C281.127960,268.369843 280.016022,261.225891 282.881989,256.167877   C283.072235,255.832092 282.893463,255.137192 282.663696,254.737244   C280.872284,251.619003 279.026306,248.532120 277.067169,245.215424   C278.798920,242.906006 280.488129,240.653336 282.108673,238.492188   C279.699493,237.136414 277.879578,236.112259 276.030457,234.721100   C298.645355,234.169876 321.289246,233.898056 343.933716,233.824036   C371.256805,233.734726 398.580444,233.813263 425.903839,233.819000   C428.546295,233.819565 431.188782,233.819077 434.205444,233.819077   C434.205444,246.003983 434.205444,257.742706 434.205444,270.178253   C388.202179,270.178253 342.313416,270.178253 295.708191,270.178253   C295.708191,288.937744 295.708191,307.011627 295.608276,325.544495  z"/>
<path fill="#01F4E4" opacity="1.000000" stroke="none" d=" M600.991943,270.528717   C546.564270,270.529602 492.635162,270.529602 438.194946,270.529602   C438.194946,258.057709 438.194946,246.318268 438.194946,234.156998   C497.096344,234.156998 556.290100,234.156998 616.001465,234.156998   C616.001465,245.883469 616.001465,257.778748 616.001465,270.527832   C611.333801,270.527832 606.412109,270.527832 600.991943,270.528717  z"/>
<path fill="#01EDDC" opacity="1.000000" stroke="none" d=" M752.751099,511.999939   C752.757935,477.369781 752.763306,443.239624 752.783691,409.109497   C752.783875,408.797882 752.984741,408.486359 753.227417,407.780884   C764.134338,407.780884 775.177063,407.780884 786.571411,407.780884   C786.571411,470.765381 786.571411,533.604004 786.571411,596.830566   C775.362793,596.830566 764.337097,596.830566 752.750488,596.830566   C752.750488,568.657532 752.750488,540.578735 752.751099,511.999939  z"/>
<path fill="#FAFBFB" opacity="1.000000" stroke="none" d=" M625.332520,863.627991   C636.854614,878.215454 637.614624,899.035156 628.328247,915.960938   C612.895020,944.090271 573.031982,948.975098 551.395325,930.358337   C531.085022,912.882874 524.221069,888.568115 540.505737,864.624023   C557.988953,838.917664 593.807983,834.777527 617.210999,854.425659   C620.219116,856.951172 622.486877,860.358521 625.332520,863.627991  M557.309875,883.110107   C555.286438,888.550171 555.309509,893.861450 557.227966,899.458557   C561.299805,911.338440 570.171021,917.098267 581.869385,918.006897   C592.539490,918.835632 601.040100,914.133911 606.663696,904.538452   C616.807068,887.230957 604.417603,870.597046 591.581970,866.589905   C577.518982,862.199585 564.845581,868.113586 557.309875,883.110107  z"/>
<path fill="#FCFCFC" opacity="1.000000" stroke="none" d=" M495.999237,939.027893   C486.896973,939.027893 477.794739,939.027893 468.459961,939.027893   C468.459961,907.663513 468.459961,876.592712 468.459961,845.130188   C489.064880,845.130188 509.570679,845.130188 530.206055,845.130188   C530.206055,852.201050 530.206055,859.125732 530.206055,866.687622   C518.855896,866.687622 507.775665,866.687622 496.495239,866.687622   C496.495239,872.577271 496.495239,877.826294 496.495239,883.641602   C507.110352,883.641602 517.502258,883.641602 528.070190,883.641602   C528.070190,890.163635 528.070190,896.120239 528.070190,902.569336   C517.711548,902.569336 507.462524,902.569336 496.510925,902.569336   C496.510925,907.459961 496.510925,911.873779 496.268066,917.048950   C496.016571,924.882874 496.007904,931.955383 495.999237,939.027893  z"/>
<path fill="#01E3D5" opacity="1.000000" stroke="none" d=" M261.808289,522.943542   C261.684265,511.310028 261.470459,499.676666 261.454956,488.042999   C261.423279,464.250458 261.498260,440.457733 261.528900,416.665100   C261.531006,415.036316 261.529205,413.407532 261.529205,411.720154   C273.174103,411.720154 284.228638,411.720154 295.566772,411.720154   C295.566772,423.837402 295.566772,435.455414 295.131500,447.629517   C293.188049,452.101990 290.775116,455.930603 290.384460,459.955505   C289.803680,465.939972 291.009949,472.074677 290.815186,478.124847   C290.462341,489.085205 289.845947,500.047699 288.937042,510.975861   C288.311646,518.494629 287.074860,525.967041 285.958801,533.437378   C285.675720,535.332214 283.918518,537.410583 284.381348,538.936829   C285.729401,543.382202 282.698059,544.731018 280.368988,546.640381   C276.053864,543.111389 271.096771,540.149719 273.938293,533.509155   C274.100189,533.130737 273.968262,532.328613 273.677216,532.099426   C269.751587,529.008545 265.773438,525.984314 261.808289,522.943542  z"/>
<path fill="#00E1D2" opacity="1.000000" stroke="none" d=" M408.020966,497.006805   C407.934143,481.056335 407.799713,465.105774 407.840515,449.155640   C407.844238,447.698608 408.608215,445.892212 409.629608,444.841400   C427.762878,426.185883 445.963165,407.595062 464.266357,389.106476   C465.372711,387.988953 467.446411,387.377716 469.093964,387.328278   C475.070648,387.148804 481.057526,387.309326 487.485840,387.782440   C486.615112,392.013458 485.299103,395.803619 483.526550,399.677307   C479.904388,399.777344 476.727325,399.640411 473.578156,399.876038   C472.036652,399.991364 470.110779,400.361511 469.104401,401.364441   C462.430573,408.015472 456.056732,414.967133 449.396515,421.632355   C441.089813,429.945312 432.741577,438.228363 424.114624,446.203430   C421.128296,448.964111 419.267090,451.460114 419.284760,455.825836   C419.419708,489.151703 419.275574,522.478638 419.288727,555.805237   C419.289337,557.377197 419.431000,559.475281 420.395569,560.438599   C429.081116,569.112305 437.965546,577.586792 447.054413,586.373901   C452.938751,580.043274 458.992676,573.530151 465.377106,567.086182   C465.340485,569.061768 465.530090,571.368164 464.501862,572.799988   C461.409393,577.106628 461.473938,578.969666 465.642181,582.688110   C462.726227,586.089478 459.780670,589.033447 457.304474,592.329956   C456.544739,593.341370 456.389709,595.895264 457.120453,596.757385   C461.173340,601.539001 465.514160,606.087097 469.940338,610.531921   C470.707123,611.301880 472.346252,611.407043 473.596680,611.456177   C479.059814,611.670593 484.528168,611.751343 489.956573,612.246704   C488.604980,614.125732 487.258301,615.611328 485.986084,617.158203   C484.292236,619.217651 482.656342,621.324646 480.995575,623.411255   C472.133301,625.162659 465.291870,622.495667 459.038116,615.633179   C450.030121,605.748169 439.975464,596.820374 430.428101,587.422485   C423.708923,580.808411 416.880554,574.281982 410.563416,567.298096   C408.814362,565.364441 408.005127,561.941895 407.979919,559.191345   C407.813995,541.095276 407.980560,522.996277 408.302185,504.195526   C408.384125,501.330841 408.202545,499.168823 408.020966,497.006805  z"/>
<path fill="#01D9CD" opacity="1.000000" stroke="none" d=" M548.033630,387.521484   C558.523743,387.448608 569.017456,387.211517 579.500671,387.447266   C581.496460,387.492096 583.828979,389.018921 585.362915,390.519470   C596.752380,401.661285 607.997009,412.951416 619.250244,424.231781   C625.332031,430.328217 631.439331,436.405853 637.301453,442.709229   C638.491333,443.988708 639.173767,446.241425 639.178589,448.047913   C639.281006,486.375549 639.368469,524.704529 639.032349,563.029541   C639.005249,566.120605 636.485535,569.772827 634.114136,572.161621   C622.394775,583.967163 610.355835,595.456177 598.386536,607.012268   C593.370850,611.854797 588.348022,616.700684 583.105652,621.290527   C581.780029,622.451172 579.598999,622.634827 577.363281,622.853638   C576.281921,621.960876 575.648254,621.481873 575.011292,620.571777   C574.662048,617.378235 574.316223,614.615723 574.269043,611.701538   C576.053833,610.559570 577.746338,609.778259 578.993469,608.546143   C589.513245,598.153137 599.858032,587.581482 610.461365,577.275330   C614.560547,573.291016 618.946228,569.487183 623.683716,566.323364   C625.965881,564.799255 626.808167,563.553162 626.814514,560.969116   C626.902466,525.372070 627.110718,489.775330 627.128601,454.178406   C627.129578,452.280304 626.183960,449.908691 624.861816,448.556610   C612.652832,436.071320 600.491577,423.521759 587.822021,411.512543   C582.263855,406.244049 577.998657,397.932922 567.918945,399.610199   C565.450989,398.495728 563.108337,397.347046 560.670471,397.085510   C556.174255,396.603088 549.371948,391.739685 548.033630,387.521484  z"/>
<path fill="#FCFCFC" opacity="1.000000" stroke="none" d=" M392.494385,938.851318   C390.913696,936.693054 388.663025,934.708496 388.650391,932.709778   C388.468353,903.910156 388.586365,875.108765 388.645966,846.307739   C388.646637,845.994141 388.827759,845.680908 389.023102,845.048950   C397.487762,845.048950 406.052032,845.048950 414.941101,845.048950   C414.941101,869.049866 414.941101,893.094727 414.941101,917.733276   C416.772003,917.733276 418.386871,917.723999 420.001587,917.734802   C431.466705,917.811340 442.934174,918.050720 454.395538,917.879761   C458.099304,917.824585 459.483307,918.813477 459.308990,922.598633   C459.057037,928.069519 459.244507,933.560608 459.244507,939.321777   C457.896210,939.483643 456.799072,939.728516 455.701538,939.730225   C436.556030,939.760864 417.410431,939.781799 398.265045,939.736267   C396.464478,939.731995 394.665070,939.268677 392.494385,938.851318  z"/>
<path fill="#01D9CB" opacity="1.000000" stroke="none" d=" M261.657410,523.393311   C265.773438,525.984314 269.751587,529.008545 273.677216,532.099426   C273.968262,532.328613 274.100189,533.130737 273.938293,533.509155   C271.096771,540.149719 276.053864,543.111389 280.368988,546.640381   C282.698059,544.731018 285.729401,543.382202 284.381348,538.936829   C283.918518,537.410583 285.675720,535.332214 285.958801,533.437378   C287.074860,525.967041 288.311646,518.494629 288.937042,510.975861   C289.845947,500.047699 290.462341,489.085205 290.815186,478.124847   C291.009949,472.074677 289.803680,465.939972 290.384460,459.955505   C290.775116,455.930603 293.188049,452.101990 294.996796,448.076294   C295.442169,457.771545 295.716583,467.576111 295.709167,477.380463   C295.679077,517.164246 295.562347,556.948059 295.478088,596.731812   C295.475311,598.046753 295.477753,599.361755 295.477753,601.141846   C284.156891,601.141846 273.136932,601.141846 261.506500,601.141846   C261.506500,575.315186 261.506500,549.579102 261.657410,523.393311  z"/>
<path fill="#00F2E1" opacity="1.000000" stroke="none" d=" M660.790527,313.052429   C662.220947,312.394409 663.836243,311.568115 665.363159,311.708008   C670.891174,312.214508 675.813599,313.625793 679.466492,318.680481   C681.677246,321.739685 685.562500,323.563019 688.603821,326.053436   C694.099854,330.554047 700.093018,334.627899 704.805115,339.848816   C708.600403,344.053986 710.643921,349.798859 713.818604,354.627930   C714.935730,356.327271 717.211060,358.554230 718.769775,358.416504   C722.460999,358.090363 724.149963,359.839203 726.031799,362.392914   C728.863464,366.235626 731.985229,369.870453 735.081604,373.510345   C737.538086,376.398102 740.734070,377.209351 744.875244,376.684723   C744.581726,370.955078 735.342529,373.967468 736.546387,366.903259   C740.120117,368.135529 743.674011,371.850006 747.159119,367.825897   C749.406677,365.230774 751.307190,362.335114 753.635254,359.208801   C760.837158,357.763123 765.051025,364.987976 771.793457,366.945557   C770.775208,368.913788 769.788574,370.820892 768.866028,372.604187   C771.377625,373.005676 774.265930,372.674957 775.011658,373.784393   C775.974121,375.216370 775.462219,377.835358 775.161255,379.880798   C774.483765,384.486267 780.573181,392.683075 786.197510,393.982422   C786.551575,396.626465 786.551575,399.270874 786.551575,402.355042   C785.332825,402.493286 784.083923,402.749573 782.833435,402.757477   C776.511658,402.797485 770.071777,402.000580 763.893738,402.942688   C753.266235,404.563354 746.694580,399.105286 740.049683,392.144073   C729.212036,380.790527 717.806458,369.980103 706.672363,358.908539   C693.051025,345.363708 679.462646,331.785767 665.859253,318.222870   C664.220215,316.588684 662.576416,314.959167 660.790527,313.052429  z"/>
<path fill="#01E5D7" opacity="1.000000" stroke="none" d=" M261.411621,358.432068   C265.565399,357.170776 274.183014,362.049438 275.830109,365.984344   C276.397430,367.339630 277.225098,368.585968 277.933807,369.882080   C279.316254,368.669861 280.734680,367.495209 282.061096,366.224518   C282.509247,365.795166 282.724304,365.122498 283.180267,364.326355   C284.331726,364.560699 285.470215,364.655090 286.506653,365.030945   C288.923462,365.907318 290.443420,365.925690 291.168884,362.727570   C291.486176,361.328979 293.932220,359.190369 295.025726,359.400055   C300.062317,360.365723 301.674774,356.938446 303.754700,353.450958   C304.920990,353.618347 306.191284,353.821381 307.467133,353.979584   C310.498383,354.355469 315.854736,352.655090 310.688965,359.002380   C308.183899,362.080444 311.181946,366.805023 315.479004,369.096924   C317.189789,367.610199 318.744293,365.186676 320.166901,365.261780   C322.606506,365.390472 324.963715,367.080536 327.355530,368.115051   C327.206238,368.663147 327.056946,369.211273 326.907654,369.759399   C328.811554,368.880096 330.715424,368.000793 332.996094,367.129303   C328.027435,372.735199 322.731232,378.381439 317.323364,383.918579   C311.226929,390.160675 304.993256,396.268738 298.894409,402.508514   C296.366638,405.094727 293.695496,406.684845 289.813202,406.581268   C280.561462,406.334503 271.298645,406.501740 261.299316,406.501740   C261.299316,390.317078 261.299316,374.603607 261.411621,358.432068  z"/>
<path fill="#01DFD3" opacity="1.000000" stroke="none" d=" M694.666016,665.065796   C694.546021,667.507385 694.549011,670.255615 693.609253,672.630859   C691.041321,679.121399 689.296631,685.715759 690.058533,692.711731   C690.187134,693.892151 691.863892,694.846558 692.650452,696.022278   C696.967163,702.474365 703.625854,698.950623 709.595581,699.981689   C701.500061,708.641479 693.018982,717.287964 684.547180,725.943481   C683.621887,726.888855 682.736267,727.874207 681.854187,728.860596   C677.151367,734.119263 672.383362,738.106140 664.225403,737.586243   C651.011414,736.744141 637.704468,737.359558 624.436768,737.359558   C624.223999,736.814697 624.011169,736.269836 623.798401,735.724976   C647.318542,712.217468 670.838684,688.709900 694.666016,665.065796  z"/>
<path fill="#01E5D7" opacity="1.000000" stroke="none" d=" M573.970337,611.853271   C574.316223,614.615723 574.662048,617.378235 575.006348,620.912842   C574.999512,622.139893 574.994263,622.594849 574.989014,623.049744   C554.748474,623.218567 534.507996,623.407104 514.267273,623.548279   C503.480713,623.623535 492.693634,623.617004 481.451172,623.529358   C482.656342,621.324646 484.292236,619.217651 485.986084,617.158203   C487.258301,615.611328 488.604980,614.125732 490.415649,612.139954   C497.379852,611.638672 503.847107,611.568176 510.313995,611.589539   C531.532837,611.659546 552.751587,611.762817 573.970337,611.853271  z"/>
<path fill="#01D1C5" opacity="1.000000" stroke="none" d=" M547.575378,387.406647   C549.371948,391.739685 556.174255,396.603088 560.670471,397.085510   C563.108337,397.347046 565.450989,398.495728 567.458618,399.707092   C539.381531,399.977905 511.682343,399.785858 483.983154,399.593781   C485.299103,395.803619 486.615112,392.013458 487.938843,387.888306   C507.670105,387.466156 527.393616,387.378967 547.575378,387.406647  z"/>
<path fill="#FCFCFC" opacity="1.000000" stroke="none" d=" M497.999390,918.009521   C508.748749,918.009521 519.498108,918.009521 530.497375,918.009521   C530.497375,925.071960 530.497375,931.951721 530.497375,939.231262   C519.800171,939.231262 509.368744,939.231262 498.376190,938.699219   C497.876526,931.447998 497.937958,924.728760 497.999390,918.009521  z"/>



<path fill="#A8B0B2" opacity="1.000000" stroke="none" d=" M497.733276,917.859985   C497.937958,924.728760 497.876526,931.447998 497.911957,938.634521   C497.457367,939.162109 496.905914,939.222473 496.176849,939.155396   C496.007904,931.955383 496.016571,924.882874 496.222931,917.459595   C496.769501,917.309265 497.118347,917.509827 497.733276,917.859985  z"/>
<path fill="#00F2E1" opacity="1.000000" stroke="none" d=" M721.108337,323.595276   C719.352356,324.376770 717.482056,324.840912 715.611816,325.305054   C715.704346,323.126099 715.796875,320.947113 715.949341,318.371643   C717.670837,319.742706 719.332458,321.510315 721.108337,323.595276  z"/>
<path fill="#00F2E1" opacity="1.000000" stroke="none" d=" M626.708252,273.817963   C627.454895,275.525970 627.895752,277.109467 628.070190,278.896912   C626.024902,277.749390 624.245972,276.397980 621.351501,274.199097   C623.987610,273.935211 625.195007,273.814331 626.708252,273.817963  z"/>
<path fill="#00F2E1" opacity="1.000000" stroke="none" d=" M752.885986,341.428528   C756.234680,342.955841 755.539185,345.327026 753.338562,347.908752   C752.906982,345.951996 752.844910,343.904419 752.885986,341.428528  z"/>
<path fill="#01D9CB" opacity="1.000000" stroke="none" d=" M407.899963,497.338867   C408.202545,499.168823 408.384125,501.330841 408.338806,503.725464   C408.000946,501.862396 407.889954,499.766663 407.899963,497.338867  z"/>
<path fill="#00F2E1" opacity="1.000000" stroke="none" d=" M751.056885,352.630127   C748.841003,353.136627 746.755005,353.023254 746.998596,349.408997   C748.315247,350.113983 749.633484,351.218567 751.056885,352.630127  z"/>
<path fill="#00F2E1" opacity="1.000000" stroke="none" d=" M743.217285,345.535919   C740.396362,347.430664 739.813416,345.927917 740.118652,342.919434   C741.130249,343.423737 742.103455,344.328217 743.217285,345.535919  z"/>
<path fill="#00F2E1" opacity="1.000000" stroke="none" d=" M630.895569,282.403290   C631.843140,282.912567 632.876526,283.752411 633.882874,284.997009   C632.897705,284.512451 631.939514,283.623169 630.895569,282.403290  z"/>
<path fill="#01D9CB" opacity="1.000000" stroke="none" d=" M575.168945,623.172852   C574.994263,622.594849 574.999512,622.139893 575.009705,621.343872   C575.648254,621.481873 576.281921,621.960876 576.968872,622.760376   C576.464355,623.152527 575.906677,623.224182 575.168945,623.172852  z"/>
<path fill="#01E5D7" opacity="1.000000" stroke="none" d=" M296.017517,352.639221   C295.585358,353.062622 295.117310,353.245056 294.649231,353.427490   C294.831146,352.987976 295.013062,352.548462 295.451385,352.052155   C295.707825,351.995331 295.981659,352.398285 296.017517,352.639221  z"/>
<path fill="#01D3C7" opacity="1.000000" stroke="none" d=" M269.092285,718.324829   C270.096436,719.016663 270.771057,719.826416 271.445648,720.636108   C270.650635,720.978638 269.855621,721.321228 269.060608,721.663818   C268.961334,720.590149 268.862061,719.516357 269.092285,718.324829  z"/>
<path fill="#01E5D7" opacity="1.000000" stroke="none" d=" M281.753174,357.507294   C282.452789,357.502075 282.949646,357.695679 283.446503,357.889282   C283.174774,358.186005 282.903046,358.482788 282.631317,358.779541   C282.270996,358.421722 281.910706,358.063904 281.753174,357.507294  z"/>
<path fill="#01E5D7" opacity="1.000000" stroke="none" d=" M271.044434,355.453491   C271.261566,355.811707 271.259003,356.167267 271.230835,356.520813   C271.230072,356.530518 270.826111,356.524567 270.825684,356.515564   C270.808533,356.161285 270.816498,355.805847 271.044434,355.453491  z"/>
<path fill="#01DFD3" opacity="1.000000" stroke="none" d=" M693.208679,691.064697   C693.802124,690.240601 694.344360,689.723633 694.886658,689.206604   C695.105713,689.713196 695.324829,690.219727 695.543945,690.726318   C694.748413,690.941467 693.952942,691.156616 693.208679,691.064697  z"/>
<path fill="#01DBCF" opacity="1.000000" stroke="none" d=" M751.552673,658.421875   C751.668152,657.977417 751.946350,657.708862 752.224487,657.440308   C752.333191,657.557068 752.544495,657.767151 752.535522,657.776978   C752.275574,658.062805 751.993713,658.328735 751.552673,658.421875  z"/>
<path fill="#091B26" opacity="1.000000" stroke="none" d=" M557.410522,882.723572   C564.845581,868.113586 577.518982,862.199585 591.581970,866.589905   C604.417603,870.597046 616.807068,887.230957 606.663696,904.538452   C601.040100,914.133911 592.539490,918.835632 581.869385,918.006897   C570.171021,917.098267 561.299805,911.338440 557.227966,899.458557   C555.309509,893.861450 555.286438,888.550171 557.410522,882.723572  z"/>
<path fill="#051822" opacity="1.000000" stroke="none" d=" M483.526550,399.677307   C511.682343,399.785858 539.381531,399.977905 567.541016,400.073059   C577.998657,397.932922 582.263855,406.244049 587.822021,411.512543   C600.491577,423.521759 612.652832,436.071320 624.861816,448.556610   C626.183960,449.908691 627.129578,452.280304 627.128601,454.178406   C627.110718,489.775330 626.902466,525.372070 626.814514,560.969116   C626.808167,563.553162 625.965881,564.799255 623.683716,566.323364   C618.946228,569.487183 614.560547,573.291016 610.461365,577.275330   C599.858032,587.581482 589.513245,598.153137 578.993469,608.546143   C577.746338,609.778259 576.053833,610.559570 574.269043,611.701538   C552.751587,611.762817 531.532837,611.659546 510.313995,611.589539   C503.847107,611.568176 497.379852,611.638672 490.453705,611.773804   C484.528168,611.751343 479.059814,611.670593 473.596680,611.456177   C472.346252,611.407043 470.707123,611.301880 469.940338,610.531921   C465.514160,606.087097 461.173340,601.539001 457.120453,596.757385   C456.389709,595.895264 456.544739,593.341370 457.304474,592.329956   C459.780670,589.033447 462.726227,586.089478 465.924683,582.564941   C471.944458,576.192200 477.647003,570.368164 483.069611,564.294250   C485.910553,561.112122 488.868896,559.520020 493.374146,559.654724   C505.358612,560.013123 517.360596,559.792358 529.355591,559.790405   C542.016663,559.788391 554.680237,559.921875 567.337891,559.708984   C575.203674,559.576660 577.705994,557.246155 577.718872,550.010925   C577.775391,518.191711 577.632996,486.372223 577.652527,454.552917   C577.654663,451.056519 576.290161,450.000793 572.868958,450.019043   C543.549011,450.175476 514.227966,450.135254 484.907959,450.286041   C480.174866,450.310364 475.445099,450.987762 470.420258,451.386597   C470.420258,461.948578 470.466125,471.919861 470.410431,481.890564   C470.304504,500.862823 469.947845,519.836792 470.144928,538.805359   C470.190521,543.194214 469.036957,548.378113 473.404724,551.844482   C476.381622,554.207031 475.425690,556.157776 473.159241,558.377686   C470.339508,561.139526 467.740784,564.127075 465.046600,567.017090   C458.992676,573.530151 452.938751,580.043274 447.054413,586.373901   C437.965546,577.586792 429.081116,569.112305 420.395569,560.438599   C419.431000,559.475281 419.289337,557.377197 419.288727,555.805237   C419.275574,522.478638 419.419708,489.151703 419.284760,455.825836   C419.267090,451.460114 421.128296,448.964111 424.114624,446.203430   C432.741577,438.228363 441.089813,429.945312 449.396515,421.632355   C456.056732,414.967133 462.430573,408.015472 469.104401,401.364441   C470.110779,400.361511 472.036652,399.991364 473.578156,399.876038   C476.727325,399.640411 479.904388,399.777344 483.526550,399.677307  z"/>
<path fill="#01D9CB" opacity="1.000000" stroke="none" d=" M465.377106,567.086182   C467.740784,564.127075 470.339508,561.139526 473.159241,558.377686   C475.425690,556.157776 476.381622,554.207031 473.404724,551.844482   C469.036957,548.378113 470.190521,543.194214 470.144928,538.805359   C469.947845,519.836792 470.304504,500.862823 470.410431,481.890564   C470.466125,471.919861 470.420258,461.948578 470.420258,451.386597   C475.445099,450.987762 480.174866,450.310364 484.907959,450.286041   C514.227966,450.135254 543.549011,450.175476 572.868958,450.019043   C576.290161,450.000793 577.654663,451.056519 577.652527,454.552917   C577.632996,486.372223 577.775391,518.191711 577.718872,550.010925   C577.705994,557.246155 575.203674,559.576660 567.337891,559.708984   C554.680237,559.921875 542.016663,559.788391 529.355591,559.790405   C517.360596,559.792358 505.358612,560.013123 493.374146,559.654724   C488.868896,559.520020 485.910553,561.112122 483.069611,564.294250   C477.647003,570.368164 471.944458,576.192200 466.075684,582.243103   C461.473938,578.969666 461.409393,577.106628 464.501862,572.799988   C465.530090,571.368164 465.340485,569.061768 465.377106,567.086182  M565.415649,513.338135   C565.415649,496.571747 565.415649,479.805328 565.415649,462.853210   C537.456299,462.853210 510.281677,462.853210 483.076874,462.853210   C483.076874,491.299744 483.076874,519.304749 483.076874,547.428345   C510.563782,547.428345 537.595581,547.428345 565.416077,547.428345   C565.416077,536.167419 565.416077,525.227722 565.415649,513.338135  z"/>

<path fill="#051822" opacity="1.000000" stroke="none" d=" M565.415894,513.813110   C565.416077,525.227722 565.416077,536.167419 565.416077,547.428345   C537.595581,547.428345 510.563782,547.428345 483.076874,547.428345   C483.076874,519.304749 483.076874,491.299744 483.076874,462.853210   C510.281677,462.853210 537.456299,462.853210 565.415649,462.853210   C565.415649,479.805328 565.415649,496.571747 565.415894,513.813110  z"/>
</svg>